<svg width="32" height="24" viewBox="0 0 32 24" fill="none" xmlns="http://www.w3.org/2000/svg">
<path d="M31.2491 7H27.5073L26.4673 4.4C25.3985 1.72687 22.8479 0 19.9685 0H12.031C9.15227 0 6.60102 1.72687 5.53165 4.4L4.49165 7H0.750398C0.262273 7 -0.0958523 7.45875 0.0228977 7.93188L0.397898 9.43188C0.481023 9.76562 0.781023 10 1.1254 10H2.37977C1.5404 10.7331 0.999773 11.7987 0.999773 13V16C0.999773 17.0075 1.38477 17.9169 1.99977 18.6206V22C1.99977 23.1044 2.8954 24 3.99977 24H5.99977C7.10415 24 7.99977 23.1044 7.99977 22V20H23.9998V22C23.9998 23.1044 24.8954 24 25.9998 24H27.9998C29.1041 24 29.9998 23.1044 29.9998 22V18.6206C30.6148 17.9175 30.9998 17.0081 30.9998 16V13C30.9998 11.7987 30.4591 10.7331 29.6204 10H30.8748C31.2191 10 31.5191 9.76562 31.6023 9.43188L31.9773 7.93188C32.0954 7.45875 31.7373 7 31.2491 7ZM9.2454 5.88562C9.70102 4.74687 10.8041 4 12.031 4H19.9685C21.1954 4 22.2985 4.74687 22.7541 5.88562L23.9998 9H7.99977L9.2454 5.88562ZM5.99977 15.9875C4.79977 15.9875 3.99977 15.19 3.99977 13.9937C3.99977 12.7975 4.79977 12 5.99977 12C7.19977 12 8.99977 13.7944 8.99977 14.9906C8.99977 16.1869 7.19977 15.9875 5.99977 15.9875ZM25.9998 15.9875C24.7998 15.9875 22.9998 16.1869 22.9998 14.9906C22.9998 13.7944 24.7998 12 25.9998 12C27.1998 12 27.9998 12.7975 27.9998 13.9937C27.9998 15.19 27.1998 15.9875 25.9998 15.9875Z" fill="#13100D"/>
</svg>
