<svg width="32" height="32" viewBox="0 0 32 32" fill="none" xmlns="http://www.w3.org/2000/svg">
<path d="M0 25.3312V28C0 30.2062 5.375 32 12 32C18.625 32 24 30.2062 24 28V25.3312C21.4188 27.15 16.7 28 12 28C7.3 28 2.58125 27.15 0 25.3312ZM20 8C26.625 8 32 6.20625 32 4C32 1.79375 26.625 0 20 0C13.375 0 8 1.79375 8 4C8 6.20625 13.375 8 20 8ZM0 18.775V22C0 24.2062 5.375 26 12 26C18.625 26 24 24.2062 24 22V18.775C21.4188 20.9 16.6938 22 12 22C7.30625 22 2.58125 20.9 0 18.775ZM26 19.4625C29.5812 18.7687 32 17.4813 32 16V13.3313C30.55 14.3562 28.4188 15.0563 26 15.4875V19.4625ZM12 10C5.375 10 0 12.2375 0 15C0 17.7625 5.375 20 12 20C18.625 20 24 17.7625 24 15C24 12.2375 18.625 10 12 10ZM25.7062 13.5188C29.4562 12.8438 32 11.5188 32 10V7.33125C29.7812 8.9 25.9688 9.74375 21.9562 9.94375C23.8 10.8375 25.1562 12.0375 25.7062 13.5188Z" fill="#13100D"/>
</svg>
