<svg width="32" height="26" viewBox="0 0 32 26" fill="none" xmlns="http://www.w3.org/2000/svg">
<path d="M0 23.0001C0 24.4723 1.19444 25.6667 2.66667 25.6667H29.3333C30.8056 25.6667 32 24.4723 32 23.0001V13.2223H0V23.0001ZM10.6667 19.2223C10.6667 18.8556 10.9667 18.5556 11.3333 18.5556H18.8889C19.2556 18.5556 19.5556 18.8556 19.5556 19.2223V21.4445C19.5556 21.8112 19.2556 22.1112 18.8889 22.1112H11.3333C10.9667 22.1112 10.6667 21.8112 10.6667 21.4445V19.2223ZM3.55556 19.2223C3.55556 18.8556 3.85556 18.5556 4.22222 18.5556H8.22222C8.58889 18.5556 8.88889 18.8556 8.88889 19.2223V21.4445C8.88889 21.8112 8.58889 22.1112 8.22222 22.1112H4.22222C3.85556 22.1112 3.55556 21.8112 3.55556 21.4445V19.2223ZM32 3.4445V6.11117H0V3.4445C0 1.97228 1.19444 0.777832 2.66667 0.777832H29.3333C30.8056 0.777832 32 1.97228 32 3.4445Z" fill="#13100D"/>
</svg>
