<svg width="18" height="32" viewBox="0 0 18 32" fill="none" xmlns="http://www.w3.org/2000/svg">
<path d="M13.0727 14.5875L6.32272 12.6125C5.54147 12.3875 4.99772 11.6562 4.99772 10.8438C4.99772 9.825 5.82272 9 6.84147 9H10.9852C11.7477 9 12.4977 9.23125 13.1227 9.65625C13.504 9.9125 14.0165 9.85 14.3415 9.53125L16.5165 7.40625C16.9602 6.975 16.8977 6.25625 16.404 5.875C14.8727 4.675 12.9602 4.00625 10.9977 4V1C10.9977 0.45 10.5477 0 9.99772 0H7.99772C7.44772 0 6.99772 0.45 6.99772 1V4H6.84147C2.86022 4 -0.339777 7.41875 0.028973 11.475C0.291473 14.3563 2.49147 16.7 5.26647 17.5125L11.6727 19.3875C12.454 19.6188 12.9977 20.3438 12.9977 21.1562C12.9977 22.175 12.1727 23 11.154 23H7.01022C6.24772 23 5.49772 22.7687 4.87272 22.3438C4.49147 22.0875 3.97897 22.15 3.65397 22.4688L1.47897 24.5938C1.03522 25.025 1.09772 25.7437 1.59147 26.125C3.12272 27.325 5.03522 27.9937 6.99772 28V31C6.99772 31.55 7.44772 32 7.99772 32H9.99772C10.5477 32 10.9977 31.55 10.9977 31V27.9875C13.9102 27.9312 16.6415 26.2 17.604 23.4438C18.9477 19.5938 16.6915 15.6437 13.0727 14.5875Z" fill="#13100D"/>
</svg>
